<?xml version="1.0" encoding="UTF-8"?>
<svg id="Layer_2" data-name="Layer 2" xmlns="http://www.w3.org/2000/svg" viewBox="0 0 2984.52 2885.21">
  <defs>
    <style>
      .cls-1 {
        fill: #020504;
      }
    </style>
  </defs>
  <g id="Layer_1-2" data-name="Layer 1">
    <g>
      <path class="cls-1" d="M2962.16,2004.72c-3.24-9.04-6.25-18.17-9.76-27-2.25-5.21-3.38-7.81-5.63-13.02-1.14-2.59-1.7-3.89-2.84-6.48-.95-2.15-2.15-4.18-3.22-6.27-4.46-8.27-8.8-16.74-13.77-24.41-2.49-3.83-4.96-7.97-7.52-11.69-2.55-3.71-5.5-7.52-8.28-11-21.9-27.42-47.55-51.91-78.59-70.76-28.96-17.59-60.27-31.31-92.63-41.15-4.01-1.22-8.01-2.54-12.05-3.65-4.87-1.24-7.31-1.86-12.2-3.1-4.08-1-8.13-2.11-12.23-3-4.93-1-7.4-1.5-12.35-2.5-16.43-3.52-33.12-5.89-49.98-7.84-5.1-.52-7.65-.79-12.77-1.31-4.47-.41-8.58-.54-12.89-.87-8.54-.64-17.06-.96-25.52-1.32-8.46-.36-17.05-.52-25.59-.8-10.28-.11-15.43-.16-25.77-.24-17.23,0-34.58.32-52.03.88-5.24.19-7.86.29-13.11.49-4.38.23-8.77.55-13.16.72-8.78.3-17.6,1.02-26.45,1.58-36.1,2.59-71.98,7.2-107.48,13.13-18.04,3.02-36.25,6.95-54.62,11.16-18.4,4.39-36.67,9.4-55.03,15.06-37.36,12.2-74.38,25.69-109.34,42.06-35.73,16.74-71.55,36.77-104.69,58.24-66.32,42.96-127.48,95.98-182.43,153.67-3.39,3.56-6.73,7-10.14,10.82-3.43,3.84-6.95,7.67-10.28,11.64-3.32,3.96-6.74,7.96-9.98,12.01-3.23,4.04-6.51,8.2-9.62,12.41-12.45,16.81-24.13,34.74-33.63,53.85-9.5,19.08-17.15,39.34-21.94,60.1-1.2,5.18-2.29,10.55-3.09,15.66-.8,5.09-1.52,10.53-1.96,15.76-.85,10.21-1.09,21.82-.27,33.03,1.6,21.87,9.92,48.37,20.78,67.25,11.25,19.55,29.98,40.28,47.78,54.22,17.48,13.69,38.71,26.78,59.27,35.96,5.06,2.26,10.2,4.78,15.3,6.73,5.99,2.38,8.99,3.57,14.97,5.95,7.9,3.18,15.9,6.19,23.67,9.5,62.21,26.52,122.01,58.44,179.72,93.67,28.93,17.66,57.49,36.64,85.65,55.82,29.48,20.08,58.93,40.84,88.65,59.96,32.25,20.76,65.94,39.54,100.56,56.91,19.26,9.12,39.33,17.08,59.85,23.52,20.49,6.51,41.6,11.51,62.37,14.9,39.73,6.49,81.5,6.99,121.56,2.14,19.11-2.31,38.07-6.43,54.64-10.26,8.46-1.96,17.17-4.34,25.63-6.8,4.23-1.23,8.49-2.37,12.7-3.72,5.03-1.72,7.54-2.58,12.56-4.3,33.47-11.55,65.77-26.79,95.15-46.61,30.22-20.39,56.96-45.41,78.48-72.8,21.96-27.95,38.87-60.3,54.01-94.08,2.04-5.06,3.06-7.58,5.11-12.64,1.64-4.22,3.02-8.46,4.54-12.7,1.53-4.22,2.95-8.48,4.26-12.79,1.33-4.3,2.75-8.58,4.01-12.89,5.04-17.26,9.43-34.87,13.11-52.44,3.67-17.57,6.58-35.37,9.1-53.09,2.41-17.72,4.3-35.42,5.88-53.05,1.47-17.62,2.67-35.19,3.49-52.61.82-17.4,1.41-34.73,1.89-52.03.98-35.83.75-71.83-1.18-107.41-.49-9.1-1.28-18.42-2.23-27.56-.48-4.58-.93-9.21-1.53-13.82-.34-2.76-.51-4.15-.85-6.91-.35-2.7-.78-5.8-1.25-8.55-1.91-11.26-4.49-21.4-7.11-30.47-1.31-4.54-2.63-8.83-3.91-12.93-1.5-4.77-2.25-7.16-3.74-11.94Z"/>
      <path class="cls-1" d="M1073.08,1224.59c-144.77,196.83,112.44,280.98,42.32,473.11-37.49,102.72-228.08,261.57-421.78,211.47-752.09-194.52-1016.43,981.75-160.58,976.03,286.06-1.91,407.93-104.83,535.74-385.25,71.3-156.44,253.91-329.8,549.76-570.88,722.08-588.38-236.26-1124.88-545.47-704.47Z"/>
      <path class="cls-1" d="M2060.48,924.36c-101.85-11.26-177.01-160.55-103.32-222.62,418.98-352.85-46.76-905.25-453.08-625.18-231.15,159.33-223.66,415.23-395.44,269.12-230.93-196.41-538.24-48.04-495.47,221.25,42.15,265.47,223.96,364.53,746.74,434.61,133.88,17.95,358.88,15.25,481.78,182.95,292.5,399.14,702.05-206.73,218.79-260.14Z"/>
    </g>
  </g>
</svg>